<?xml version="1.0" encoding="utf-8"?>
<!-- Generator: Adobe Illustrator 19.0.0, SVG Export Plug-In . SVG Version: 6.00 Build 0)  -->
<svg version="1.1" id="Слой_1" xmlns="http://www.w3.org/2000/svg" xmlns:xlink="http://www.w3.org/1999/xlink" x="0px" y="0px"
	 viewBox="0 0 210.3 200" style="enable-background:new 0 0 210.3 200;" xml:space="preserve">
<style type="text/css">
	.st0{fill:#E8EFC0;}
	.st1{fill:#4A698A;}
	.st2{fill:#2E3549;}
</style>
<g id="XMLID_510_">
	<g id="XMLID_809_">
		<polygon id="XMLID_823_" class="st0" points="201.8,79.1 164.9,192.6 45.4,192.6 12.3,90.7 8.6,79.2 105.2,8.9 105.3,9 		"/>
		<polygon id="XMLID_820_" class="st0" points="8.6,79.2 12.3,90.7 8.5,79 105.1,8.9 105.2,8.9 		"/>
		<polygon id="XMLID_819_" class="st1" points="45.4,192.6 105.3,192.6 105.3,192.8 45.4,192.8 12.3,90.7 		"/>
		<polygon id="XMLID_814_" class="st1" points="105.3,8.9 105.3,9 105.2,8.9 		"/>
	</g>
	<polygon id="XMLID_856_" class="st1" points="170.8,64.4 72.1,197.9 71.9,198.1 42,198.1 32.8,169.8 32.8,169.8 131.7,36 	"/>
	<path id="XMLID_774_" class="st2" d="M170.1,200h-130L0,76.4L105.1,0l105.1,76.4L170.1,200z M50.7,185.5h108.9l33.7-103.6l-88.1-64
		L17,81.9L50.7,185.5z"/>
</g>
</svg>
