<?xml version="1.0" encoding="utf-8"?>
<!-- Generator: Adobe Illustrator 19.0.0, SVG Export Plug-In . SVG Version: 6.00 Build 0)  -->
<svg version="1.1" id="Слой_1" xmlns="http://www.w3.org/2000/svg" xmlns:xlink="http://www.w3.org/1999/xlink" x="0px" y="0px"
	 viewBox="0 0 200 200" style="enable-background:new 0 0 200 200;" xml:space="preserve">
<style type="text/css">
	.st0{fill:#E8EFC0;}
	.st1{fill:#4A698A;}
	.st2{fill:#2E3549;}
</style>
<g id="XMLID_4_">
	<path id="XMLID_20_" class="st0" d="M171.1,29.7c38.8,39.3,38.5,102.6-0.7,141.4c-13.1,12.9-28.8,21.5-45.4,25.8
		c-16.7,4.3-34.3,4.2-51-0.3c-16.5-4.4-32.2-13.2-45.1-26.2C-9.9,131.1-9.6,67.8,29.7,28.9C42.7,16,58.4,7.4,75,3.2
		c16.7-4.3,34.3-4.2,51,0.3C142.5,7.9,158.2,16.6,171.1,29.7z"/>
	<path id="XMLID_9_" class="st1" d="M126,3.4l-1,193.4c-16.7,4.3-34.3,4.2-51-0.3L75,3.2C91.7-1.1,109.3-1,126,3.4z"/>
	<path id="XMLID_6_" class="st2" d="M43.7,43.1c7.7-7.6,16.6-13.5,26.5-17.4c9.6-3.8,19.7-5.8,30.1-5.7c10.4,0.1,20.5,2.1,30.1,6
		c9.9,4.1,18.8,10,26.4,17.7c7.6,7.7,13.5,16.6,17.4,26.5c3.8,9.6,5.8,19.7,5.7,30.1c-0.1,10.4-2.1,20.5-6,30.1
		c-4.1,9.9-10,18.8-17.7,26.4s-16.6,13.5-26.5,17.4c-9.6,3.8-19.7,5.8-30.1,5.7c-10.4-0.1-20.5-2.1-30.1-6
		c-9.9-4.1-18.8-10-26.4-17.7c-7.6-7.7-13.5-16.6-17.4-26.5c-3.8-9.6-5.8-19.7-5.7-30.1s2.1-20.5,6-30.1
		C30.1,59.6,36,50.7,43.7,43.1 M29.7,28.9C-9.6,67.8-9.9,131.1,28.9,170.3c38.8,39.3,102.2,39.6,141.4,0.7
		c39.3-38.8,39.6-102.2,0.7-141.4C132.2-9.6,68.9-9.9,29.7,28.9L29.7,28.9z"/>
</g>
</svg>
