<?xml version="1.0" encoding="utf-8"?>
<!-- Generator: Adobe Illustrator 19.0.0, SVG Export Plug-In . SVG Version: 6.00 Build 0)  -->
<svg version="1.1" id="Слой_1" xmlns="http://www.w3.org/2000/svg" xmlns:xlink="http://www.w3.org/1999/xlink" x="0px" y="0px"
	 viewBox="0 0 200 200" style="enable-background:new 0 0 200 200;" xml:space="preserve">
<style type="text/css">
	.st0{fill:#E8EFC0;}
	.st1{fill:#4A698A;}
	.st2{fill:#2E3549;}
</style>
<g id="XMLID_134_">
	<circle id="XMLID_144_" class="st0" cx="100" cy="100" r="100"/>
	<path id="XMLID_138_" class="st1" d="M188.8,54c-4.6-8.9-10.6-17.2-18.1-24.7c-8.1-8.1-17.2-14.5-26.9-19.2c-0.7-0.4-1.5-0.7-2.2-1
		C104.7-7.8,59.7-1.1,29.3,29.3S-7.8,104.7,9.1,141.6c0.3,0.7,0.7,1.5,1,2.2c4.7,9.7,11.1,18.8,19.2,26.9
		c7.5,7.5,15.8,13.5,24.7,18.1c37.7,19.5,85.1,13.5,116.7-18.1C202.3,139.1,208.3,91.7,188.8,54z M100,180c-10.4,0-20.5-2-30.1-5.9
		c-0.3-0.1-0.6-0.2-0.9-0.4c-9.6-4-18.2-9.8-25.6-17.2c-1.2-1.2-2.3-2.4-3.4-3.6c-6-6.8-10.8-14.5-14.2-22.9c-0.5-1.3-1-2.5-1.4-3.8
		L126.3,24.4c1.3,0.4,2.6,0.9,3.8,1.4c8.4,3.4,16.1,8.2,22.9,14.2c1.2,1.1,2.4,2.2,3.6,3.4c7.4,7.4,13.2,16,17.2,25.6
		c0.1,0.3,0.2,0.6,0.4,0.9c3.9,9.6,5.9,19.7,5.9,30.1c0,10.4-2,20.5-5.9,30.1c-4,9.9-9.9,18.8-17.6,26.5
		c-7.6,7.6-16.5,13.6-26.5,17.6C120.5,178,110.4,180,100,180z M100,20c-10.4,0-20.5,2-30.1,5.9c-9.9,4-18.8,9.9-26.5,17.6
		C35.8,51.1,29.9,60,25.9,69.9C22,79.5,20,89.6,20,100c0,9,1.5,17.8,4.4,26.3L126.3,24.4C117.8,21.5,109,20,100,20z M24.4,126.3
		C21.5,117.8,20,109,20,100c0-10.4,2-20.5,5.9-30.1c4-9.9,9.9-18.8,17.6-26.5S60,29.9,69.9,25.9C79.5,22,89.6,20,100,20
		c9,0,17.8,1.5,26.3,4.4"/>
	<path id="XMLID_135_" class="st2" d="M156.6,43.4c7.6,7.6,13.6,16.5,17.6,26.5c3.9,9.6,5.9,19.7,5.9,30.1c0,10.4-2,20.5-5.9,30.1
		c-4,9.9-9.9,18.8-17.6,26.5s-16.5,13.6-26.5,17.6c-9.6,3.9-19.7,5.9-30.1,5.9c-10.4,0-20.5-2-30.1-5.9c-9.9-4-18.8-9.9-26.5-17.6
		c-7.6-7.6-13.6-16.5-17.6-26.5C22,120.5,20,110.4,20,100c0-10.4,2-20.5,5.9-30.1c4-9.9,9.9-18.8,17.6-26.5S60,29.9,69.9,25.9
		C79.5,22,89.6,20,100,20c10.4,0,20.5,2,30.1,5.9C140,29.9,148.9,35.8,156.6,43.4 M170.7,29.3C131.7-9.8,68.3-9.8,29.3,29.3
		c-39.1,39.1-39.1,102.4,0,141.4c39.1,39.1,102.4,39.1,141.4,0C209.8,131.7,209.8,68.3,170.7,29.3L170.7,29.3z"/>
</g>
</svg>
