<?xml version="1.0" encoding="utf-8"?>
<!-- Generator: Adobe Illustrator 19.0.0, SVG Export Plug-In . SVG Version: 6.00 Build 0)  -->
<svg version="1.1" id="Слой_1" xmlns="http://www.w3.org/2000/svg" xmlns:xlink="http://www.w3.org/1999/xlink" x="0px" y="0px"
	 viewBox="0 0 200 200" style="enable-background:new 0 0 200 200;" xml:space="preserve">
<style type="text/css">
	.st0{fill:#E8EFC0;}
	.st1{fill:#4A698A;}
	.st2{fill:#2E3549;}
</style>
<g id="XMLID_123_">
	<circle id="XMLID_133_" class="st0" cx="100" cy="100" r="100"/>
	<path id="XMLID_127_" class="st1" d="M130.3,4.7C120.7,1.6,110.6,0,100,0C88.6,0,77.6,1.9,67.4,5.4c-0.8,0.3-1.5,0.5-2.3,0.8
		C27.1,20.4,0,57,0,100s27.1,79.6,65.1,93.8c0.8,0.3,1.5,0.6,2.3,0.8c10.2,3.5,21.2,5.4,32.6,5.4c10.6,0,20.7-1.6,30.3-4.7
		c40.4-12.8,69.7-50.7,69.7-95.3C200,55.3,170.7,17.5,130.3,4.7z M156.6,156.6c-7.4,7.4-15.9,13.1-25.4,17.2
		c-0.3,0.1-0.6,0.2-0.9,0.4c-9.6,3.9-19.8,5.9-30.3,5.9c-1.7,0-3.3-0.1-4.9-0.2c-9.1-0.5-17.9-2.6-26.2-6.1
		c-1.3-0.5-2.5-1.1-3.7-1.7V28c1.2-0.6,2.5-1.2,3.7-1.7c8.3-3.5,17.1-5.6,26.2-6.1C96.7,20,98.3,20,100,20c10.5,0,20.7,2,30.3,5.9
		c0.3,0.1,0.6,0.2,0.9,0.4c9.5,4,18.1,9.8,25.4,17.2c7.4,7.4,13.1,15.9,17.2,25.4c4.2,9.8,6.3,20.3,6.3,31.1
		c0,10.8-2.1,21.3-6.3,31.1C169.7,140.7,163.9,149.2,156.6,156.6z M43.4,43.4c-7.4,7.4-13.1,15.9-17.2,25.4
		C22.1,78.7,20,89.2,20,100c0,10.8,2.1,21.3,6.3,31.1c4,9.5,9.8,18.1,17.2,25.4c6.4,6.4,13.7,11.6,21.7,15.5V28
		C57.1,31.9,49.8,37,43.4,43.4z M65.1,172c-8-3.9-15.3-9.1-21.7-15.5c-7.4-7.4-13.1-15.9-17.2-25.4c-4.2-9.9-6.3-20.3-6.3-31.1
		s2.1-21.3,6.3-31.1c4-9.5,9.8-18.1,17.2-25.4C49.8,37,57.1,31.9,65.1,28"/>
	<path id="XMLID_124_" class="st2" d="M100,20c10.8,0,21.3,2.1,31.1,6.3c9.5,4,18.1,9.8,25.4,17.2c7.4,7.4,13.1,15.9,17.2,25.4
		c4.2,9.8,6.3,20.3,6.3,31.1s-2.1,21.3-6.3,31.1c-4,9.5-9.8,18.1-17.2,25.4c-7.4,7.4-15.9,13.1-25.4,17.2
		c-9.8,4.2-20.3,6.3-31.1,6.3s-21.3-2.1-31.1-6.3c-9.5-4-18.1-9.8-25.4-17.2c-7.4-7.4-13.1-15.9-17.2-25.4
		c-4.2-9.8-6.3-20.3-6.3-31.1s2.1-21.3,6.3-31.1c4-9.5,9.8-18.1,17.2-25.4s15.9-13.1,25.4-17.2C78.7,22.1,89.2,20,100,20 M100,0
		C44.8,0,0,44.8,0,100c0,55.2,44.8,100,100,100c55.2,0,100-44.8,100-100C200,44.8,155.2,0,100,0L100,0z"/>
</g>
</svg>
