<?xml version="1.0" encoding="utf-8"?>
<!-- Generator: Adobe Illustrator 19.0.0, SVG Export Plug-In . SVG Version: 6.00 Build 0)  -->
<svg version="1.1" id="Слой_1" xmlns="http://www.w3.org/2000/svg" xmlns:xlink="http://www.w3.org/1999/xlink" x="0px" y="0px"
	 viewBox="0 0 200 200" style="enable-background:new 0 0 200 200;" xml:space="preserve">
<style type="text/css">
	.st0{fill:#E8EFC0;}
	.st1{fill:#4A698A;}
	.st2{fill:#2E3549;}
</style>
<g id="XMLID_145_">
	<path id="XMLID_158_" class="st0" d="M170.7,170.7c-12.4,12.4-27.3,20.9-43.1,25.4c-12.6,3.6-25.7,4.7-38.6,3.3
		c-9.6-1.1-19-3.5-28-7.3c-7.8-3.3-15.3-7.7-22.3-13.1c-3.3-2.5-6.4-5.3-9.4-8.3s-5.8-6.1-8.3-9.4c-5.4-6.9-9.8-14.4-13.1-22.3
		c-3.8-9-6.3-18.5-7.3-28c-1.4-12.9-0.3-26,3.3-38.6c4.5-15.8,13-30.7,25.4-43.1C41.7,16.9,56.6,8.4,72.4,3.9
		C85,0.3,98.1-0.8,111,0.6c9.6,1.1,19,3.5,28,7.3c7.8,3.3,15.3,7.7,22.3,13.1c3.3,2.5,6.4,5.3,9.4,8.3s5.8,6.1,8.3,9.4
		c5.4,6.9,9.8,14.4,13.1,22.3c3.8,9,6.3,18.5,7.3,28c1.4,12.9,0.3,26-3.3,38.6C191.6,143.4,183.1,158.3,170.7,170.7z"/>
	<g id="XMLID_149_">
		<g id="XMLID_48_">
			<g id="XMLID_55_">
				<path id="XMLID_56_" class="st1" d="M127.6,196.1l68.5-68.5c3.6-12.6,4.7-25.7,3.3-38.6L89,199.4"/>
			</g>
			<g id="XMLID_53_">
				<path id="XMLID_54_" class="st1" d="M192.1,60.9L60.9,192.1c-7.8-3.3-15.3-7.7-22.3-13.1L179,38.7
					C184.4,45.6,188.8,53.1,192.1,60.9z"/>
			</g>
			<g id="XMLID_51_">
				<path id="XMLID_52_" class="st1" d="M161.3,21L21,161.3c-5.4-6.9-9.8-14.4-13.1-22.3L139.1,7.9C146.9,11.2,154.4,15.6,161.3,21z
					"/>
			</g>
			<g id="XMLID_49_">
				<path id="XMLID_50_" class="st1" d="M111,0.6L0.6,111c-1.4-12.9-0.3-26,3.3-38.6L72.4,3.9C85,0.3,98.1-0.8,111,0.6z"/>
			</g>
		</g>
	</g>
	<path id="XMLID_146_" class="st2" d="M29.3,170.7c-9.5-9.5-16.9-20.7-22-33.1C2.5,125.6,0,113,0,100c0-13,2.5-25.6,7.3-37.6
		c5-12.4,12.4-23.5,22-33.1S50,12.4,62.4,7.3C74.4,2.5,87,0,100,0s25.6,2.5,37.6,7.3c12.4,5,23.5,12.4,33.1,22s16.9,20.7,22,33.1
		c4.9,12,7.3,24.6,7.3,37.6s-2.5,25.6-7.3,37.6c-5,12.4-12.4,23.5-22,33.1s-20.7,16.9-33.1,22c-12,4.9-24.6,7.3-37.6,7.3
		c-13,0-25.6-2.5-37.6-7.3C50,187.6,38.8,180.3,29.3,170.7z M158.6,41.4c-15.7-15.7-36.5-24.3-58.6-24.3c-22.1,0-42.9,8.6-58.6,24.3
		S17.1,77.9,17.1,100s8.6,42.9,24.3,58.6s36.5,24.3,58.6,24.3c22.1,0,42.9-8.6,58.6-24.3s24.3-36.5,24.3-58.6
		C182.9,77.9,174.3,57.1,158.6,41.4z"/>
</g>
</svg>
