<?xml version="1.0" encoding="utf-8"?>
<!-- Generator: Adobe Illustrator 19.0.0, SVG Export Plug-In . SVG Version: 6.00 Build 0)  -->
<svg version="1.1" id="Слой_1" xmlns="http://www.w3.org/2000/svg" xmlns:xlink="http://www.w3.org/1999/xlink" x="0px" y="0px"
	 viewBox="0 0 193.2 230" style="enable-background:new 0 0 193.2 230;" xml:space="preserve">
<style type="text/css">
	.st0{fill:#E8EFC0;}
	.st1{fill:#4A698A;}
	.st2{fill:#2E3549;}
</style>
<g id="XMLID_779_">
	<g id="XMLID_771_">
		<path id="XMLID_793_" class="st0" d="M96.6,222.2L96.6,222.2c-49,0-88.8-39.8-88.8-88.8V7.8h177.6v125.6
			C185.4,182.4,145.7,222.2,96.6,222.2z"/>
		<path id="XMLID_805_" class="st1" d="M126.1,7.8v209.4c-9.2,3.2-19.1,5-29.5,5s-20.3-1.8-29.5-5V7.8H126.1z"/>
	</g>
	<path id="XMLID_794_" class="st2" d="M15.6,15.6v117.8c0,21.6,8.4,42,23.7,57.3s35.6,23.7,57.3,23.7h0c21.6,0,42-8.4,57.3-23.7
		c15.3-15.3,23.7-35.6,23.7-57.3V15.6H15.6z M96.6,230c-13,0-25.7-2.6-37.6-7.6c-11.5-4.9-21.8-11.8-30.7-20.7
		c-8.9-8.9-15.8-19.2-20.7-30.7c-5-11.9-7.6-24.6-7.6-37.6V0h193.2v133.4c0,13-2.6,25.7-7.6,37.6c-4.9,11.5-11.8,21.8-20.7,30.7
		c-8.9,8.9-19.2,15.8-30.7,20.7C122.3,227.4,109.6,230,96.6,230z"/>
</g>
</svg>
