<?xml version="1.0" encoding="utf-8"?>
<!-- Generator: Adobe Illustrator 19.0.0, SVG Export Plug-In . SVG Version: 6.00 Build 0)  -->
<svg version="1.1" id="Слой_1" xmlns="http://www.w3.org/2000/svg" xmlns:xlink="http://www.w3.org/1999/xlink" x="0px" y="0px"
	 viewBox="0 0 210.2 200" style="enable-background:new 0 0 210.2 200;" xml:space="preserve">
<style type="text/css">
	.st0{fill:#E8EFC0;}
	.st1{fill:#4A698A;}
	.st2{fill:#2E3549;}
</style>
<g id="XMLID_1_">
	<polygon id="XMLID_19_" class="st0" points="200.6,79.6 196.7,91.7 196.7,91.7 188.6,116.4 184,130.5 171.3,169.2 164.6,189.8
		163.9,191.9 140.2,191.8 99.7,191.8 59.2,191.7 45.8,191.7 45.2,189.6 40.6,175.6 32.9,151.7 25.2,127.8 21.4,116.1 17.5,103.9
		9.8,79.9 9.5,79.3 21.5,70.6 45.4,53.3 69.3,36 93.2,18.7 105.2,10 105.6,10.3 117.1,18.7 125.8,25.1 141,36.1 146.1,39.9
		164.8,53.5 166.4,54.7 186.7,69.5 188.7,70.9 	"/>
	<g id="XMLID_10_">
		<g id="XMLID_41_">
			<polygon id="XMLID_46_" class="st1" points="184,130.5 171.3,169.2 140.2,191.8 99.7,191.8 			"/>
			<polygon id="XMLID_45_" class="st1" points="200.6,79.6 196.7,91.7 196.7,91.7 59.2,191.7 45.8,191.7 45.2,189.6 40.6,175.6
				186.7,69.5 188.7,70.9 			"/>
			<g id="XMLID_43_">
				<polygon id="XMLID_44_" class="st1" points="166.4,54.7 32.9,151.7 25.2,127.8 146.1,39.9 164.8,53.5 				"/>
			</g>
			<polygon id="XMLID_42_" class="st1" points="125.8,25.1 17.5,103.9 9.8,79.9 105.6,10.3 117.1,18.7 			"/>
		</g>
	</g>
	<path id="XMLID_102_" class="st2" d="M169.8,200l-129.9-0.2L0,76.2L105.2,0l105,76.5L169.8,200z M51.7,183.5l106.3,0.2l33-101
		l-85.9-62.6L19.1,82.4L51.7,183.5z"/>
</g>
</svg>
