<?xml version="1.0" encoding="utf-8"?>
<!-- Generator: Adobe Illustrator 19.0.0, SVG Export Plug-In . SVG Version: 6.00 Build 0)  -->
<svg version="1.1" id="Слой_1" xmlns="http://www.w3.org/2000/svg" xmlns:xlink="http://www.w3.org/1999/xlink" x="0px" y="0px"
	 viewBox="0 0 178.3 220" style="enable-background:new 0 0 178.3 220;" xml:space="preserve">
<style type="text/css">
	.st0{fill:#E8EFC0;}
	.st1{fill:#2E3549;}
	.st2{fill:#4A698A;}
</style>
<g id="XMLID_389_">
	<path id="XMLID_392_" class="st0" d="M89.2,220L89.2,220C40,220,0,180,0,130.8V0h178.3v130.8C178.3,180,138.4,220,89.2,220z"/>
	<path id="XMLID_391_" class="st1" d="M178.3,0v130.8c0,49.2-39.9,89.1-89.1,89.1c-27.2,0-51.5-12.2-67.9-31.3
		C8,173.1,0,152.9,0,130.8v-9.5L143.1,0H178.3z"/>
	<path id="XMLID_390_" class="st2" d="M178.3,0v55.6l-157,133.1C8,173.1,0,152.9,0,130.8v-9.5L143.1,0H178.3z"/>
</g>
</svg>
