<?xml version="1.0" encoding="utf-8"?>
<!-- Generator: Adobe Illustrator 19.0.0, SVG Export Plug-In . SVG Version: 6.00 Build 0)  -->
<svg version="1.1" id="Слой_1" xmlns="http://www.w3.org/2000/svg" xmlns:xlink="http://www.w3.org/1999/xlink" x="0px" y="0px"
	 viewBox="0 0 193.2 230" style="enable-background:new 0 0 193.2 230;" xml:space="preserve">
<style type="text/css">
	.st0{fill:#E8EFC0;}
	.st1{fill:#4A698A;}
	.st2{fill:#2E3549;}
</style>
<g id="XMLID_803_">
	<path id="XMLID_802_" class="st0" d="M185.4,7.8v125.6c0,49-39.8,88.8-88.8,88.8c-14.8,0-28.8-3.6-41.1-10.1
		c-15.8-8.2-28.7-21.1-37.1-36.7c-6.7-12.5-10.5-26.8-10.5-42V7.8L185.4,7.8L185.4,7.8z"/>
	<path id="XMLID_796_" class="st1" d="M185.4,7.8v41.6l-130,162.7c-15.8-8.2-28.7-21.1-37.1-36.7L152.2,7.8L185.4,7.8L185.4,7.8z"/>
	<path id="XMLID_778_" class="st2" d="M96.6,230c-13,0-25.7-2.6-37.6-7.6c-11.5-4.9-21.8-11.8-30.7-20.7
		c-8.9-8.9-15.8-19.2-20.7-30.7c-5-11.9-7.6-24.6-7.6-37.6V0h193.2v133.4c0,13-2.6,25.7-7.6,37.6c-4.9,11.5-11.8,21.8-20.7,30.7
		c-8.9,8.9-19.2,15.8-30.7,20.7C122.3,227.4,109.6,230,96.6,230z M15.6,15.6v117.8c0,21.6,8.4,42,23.7,57.3s35.6,23.7,57.3,23.7h0
		c21.6,0,42-8.4,57.3-23.7c15.3-15.3,23.7-35.6,23.7-57.3V15.6H15.6z"/>
</g>
</svg>
