<?xml version="1.0" encoding="utf-8"?>
<!-- Generator: Adobe Illustrator 19.0.0, SVG Export Plug-In . SVG Version: 6.00 Build 0)  -->
<svg version="1.1" id="Слой_1" xmlns="http://www.w3.org/2000/svg" xmlns:xlink="http://www.w3.org/1999/xlink" x="0px" y="0px"
	 viewBox="0 0 200 200" style="enable-background:new 0 0 200 200;" xml:space="preserve">
<style type="text/css">
	.st0{fill:#E8EFC0;}
	.st1{fill:#4A698A;}
	.st2{fill:#2E3549;}
</style>
<g id="XMLID_90_">
	<path id="XMLID_96_" class="st0" d="M200,100c0,55.2-44.8,100-100,100c-18.4,0-35.6-5-50.4-13.6c-14.9-8.7-27.4-21.2-36.1-36.1
		C5,135.6,0,118.4,0,100C0,44.8,44.8,0,100,0c18.4,0,35.6,5,50.4,13.6c14.9,8.7,27.4,21.1,36.1,36.1C195.1,64.4,200,81.6,200,100z"
		/>
	<path id="XMLID_95_" class="st1" d="M186.4,49.6L49.6,186.4c-14.9-8.7-27.4-21.2-36.1-36.1L150.4,13.6
		C165.3,22.3,177.7,34.7,186.4,49.6z"/>
	<path id="XMLID_91_" class="st2" d="M100,20c10.8,0,21.3,2.1,31.1,6.3c9.5,4,18.1,9.8,25.4,17.2c7.4,7.4,13.1,15.9,17.2,25.4
		c4.2,9.8,6.3,20.3,6.3,31.1s-2.1,21.3-6.3,31.1c-4,9.5-9.8,18.1-17.2,25.4c-7.4,7.4-15.9,13.1-25.4,17.2
		c-9.8,4.2-20.3,6.3-31.1,6.3s-21.3-2.1-31.1-6.3c-9.5-4-18.1-9.8-25.4-17.2c-7.4-7.4-13.1-15.9-17.2-25.4
		c-4.2-9.8-6.3-20.3-6.3-31.1s2.1-21.3,6.3-31.1c4-9.5,9.8-18.1,17.2-25.4s15.9-13.1,25.4-17.2C78.7,22.1,89.2,20,100,20 M100,0
		C44.8,0,0,44.8,0,100c0,55.2,44.8,100,100,100c55.2,0,100-44.8,100-100C200,44.8,155.2,0,100,0L100,0z"/>
</g>
</svg>
