<?xml version="1.0" encoding="utf-8"?>
<!-- Generator: Adobe Illustrator 19.0.0, SVG Export Plug-In . SVG Version: 6.00 Build 0)  -->
<svg version="1.1" id="Слой_1" xmlns="http://www.w3.org/2000/svg" xmlns:xlink="http://www.w3.org/1999/xlink" x="0px" y="0px"
	 viewBox="0 0 184.8 220" style="enable-background:new 0 0 184.8 220;" xml:space="preserve">
<style type="text/css">
	.st0{fill:#E8EFC0;}
	.st1{fill:#4A698A;}
	.st2{fill:#2E3549;}
</style>
<g id="XMLID_383_">
	<path id="XMLID_388_" class="st0" d="M92.4,212.5L92.4,212.5c-46.9,0-84.9-38-84.9-84.9V7.5h169.9v120.1
		C177.3,174.5,139.3,212.5,92.4,212.5z"/>
	<path id="XMLID_387_" class="st1" d="M170.9,7.6v120.1c0,44.7-34.6,81.4-78.5,84.7V7.6H170.9z"/>
	<path id="XMLID_384_" class="st2" d="M92.4,220c-12.5,0-24.6-2.4-36-7.3c-11-4.7-20.9-11.3-29.4-19.8c-8.5-8.5-15.1-18.4-19.8-29.4
		c-4.8-11.4-7.3-23.5-7.3-36V0h184.8v127.6c0,12.5-2.4,24.6-7.3,36c-4.7,11-11.3,20.9-19.8,29.4c-8.5,8.5-18.4,15.1-29.4,19.8
		C117,217.5,104.9,220,92.4,220z M14.9,14.9v112.7c0,20.7,8.1,40.2,22.7,54.8c14.6,14.6,34.1,22.7,54.8,22.7h0
		c20.7,0,40.2-8.1,54.8-22.7c14.6-14.6,22.7-34.1,22.7-54.8V14.9H14.9z"/>
</g>
</svg>
