<?xml version="1.0" encoding="utf-8"?>
<!-- Generator: Adobe Illustrator 19.0.0, SVG Export Plug-In . SVG Version: 6.00 Build 0)  -->
<svg version="1.1" id="Слой_1" xmlns="http://www.w3.org/2000/svg" xmlns:xlink="http://www.w3.org/1999/xlink" x="0px" y="0px"
	 viewBox="0 0 184.8 220" style="enable-background:new 0 0 184.8 220;" xml:space="preserve">
<style type="text/css">
	.st0{fill:#4A698A;}
	.st1{fill:#E8EFC0;}
	.st2{fill:#2E3549;}
</style>
<g id="XMLID_1_">
	<path id="XMLID_382_" class="st0" d="M178.5,4.9v121.6c0,11.9-2.3,23.4-6.8,34.3c-4.4,10.5-10.6,19.9-18.5,28
		c-7.9,8.1-17.2,14.4-27.5,18.9c-10.7,4.6-22,6.9-33.7,6.9c-11.7,0-23-2.3-33.7-6.9c-10.3-4.4-19.6-10.8-27.5-18.9
		c-7.9-8.1-14.2-17.5-18.5-28c-4.5-10.9-6.8-22.4-6.8-34.3V4.9H178.5z"/>
	<path id="XMLID_381_" class="st1" d="M181.4,4.9v121.6c0,11.9-2.3,23.4-6.9,34.3c-4.4,10.5-10.8,19.9-18.9,28
		c-8.1,8.1-17.5,14.4-28,18.9c-10.9,4.6-22.4,6.9-34.2,6.9c-11.9,0-23.4-2.3-34.2-6.9c-10.5-4.4-19.9-10.8-28-18.9
		c-8.1-8.1-14.4-17.5-18.9-28c-4.6-10.9-6.9-22.4-6.9-34.3"/>
	<path id="XMLID_377_" class="st2" d="M0,0v127.6c0,12.5,2.4,24.6,7.3,36c4.7,11,11.3,20.9,19.8,29.4c8.5,8.5,18.4,15.1,29.4,19.8
		c11.4,4.8,23.5,7.3,36,7.3c12.5,0,24.6-2.4,36-7.3c11-4.7,20.9-11.3,29.4-19.8c8.5-8.5,15.1-18.4,19.8-29.4
		c4.8-11.4,7.3-23.5,7.3-36V0H0z M169.9,127.6c0,20.7-8.1,40.2-22.7,54.8c-7.3,7.3-15.8,13-25.1,16.8c-9.3,3.8-19.3,5.9-29.7,5.9
		c-20.7,0-40.2-8.1-54.8-22.7c-14.6-14.6-22.7-34.1-22.7-54.8V14.9h155V127.6z"/>
</g>
</svg>
