<?xml version="1.0" encoding="utf-8"?>
<!-- Generator: Adobe Illustrator 19.0.0, SVG Export Plug-In . SVG Version: 6.00 Build 0)  -->
<svg version="1.1" id="Слой_1" xmlns="http://www.w3.org/2000/svg" xmlns:xlink="http://www.w3.org/1999/xlink" x="0px" y="0px"
	 viewBox="0 0 200 200" style="enable-background:new 0 0 200 200;" xml:space="preserve">
<style type="text/css">
	.st0{fill:#E8EFC0;}
	.st1{fill:#4A698A;}
	.st2{fill:#2E3549;}
</style>
<g id="XMLID_159_">
	<path id="XMLID_172_" class="st0" d="M200,100c0,17.6-4.5,34.1-12.5,48.4c-6.3,11.4-14.9,21.5-25,29.6c-7.5,6-15.9,11-25,14.7
		c-7.9,3.2-16.3,5.4-25,6.5c-4.1,0.5-8.3,0.8-12.5,0.8s-8.4-0.3-12.5-0.8c-8.7-1.1-17.1-3.3-25-6.5c-9.1-3.7-17.5-8.6-25-14.7
		c-10.1-8.1-18.7-18.2-25-29.6C4.5,134.1,0,117.6,0,100c0-17.6,4.5-34.1,12.5-48.4c6.3-11.4,14.9-21.5,25-29.6
		c7.5-6,15.9-11,25-14.7c7.9-3.2,16.3-5.4,25-6.5C91.6,0.3,95.8,0,100,0s8.4,0.3,12.5,0.8c8.7,1.1,17.1,3.3,25,6.5
		c9.1,3.7,17.5,8.6,25,14.7c10.1,8.1,18.7,18.2,25,29.6C195.5,65.9,200,82.4,200,100z"/>
	<g id="XMLID_163_">
		<g id="XMLID_170_">
			<path id="XMLID_171_" class="st1" d="M187.5,148.4V51.6c-6.3-11.4-14.9-21.5-25-29.6v156.1"/>
		</g>
		<path id="XMLID_169_" class="st1" d="M137.5,7.3v185.5c-7.9,3.2-16.3,5.4-25,6.5V0.8C121.2,1.9,129.6,4.1,137.5,7.3z"/>
		<g id="XMLID_166_">
			<path id="XMLID_167_" class="st1" d="M87.5,0.8v198.5c-8.7-1.1-17.1-3.3-25-6.5V7.3C70.4,4.1,78.8,1.9,87.5,0.8z"/>
		</g>
		<g id="XMLID_164_">
			<path id="XMLID_165_" class="st1" d="M37.5,21.9v156.1c-10.1-8.1-18.7-18.2-25-29.6V51.6C18.8,40.1,27.4,30.1,37.5,21.9z"/>
		</g>
	</g>
	<path id="XMLID_160_" class="st2" d="M100,200c-13.5,0-26.6-2.6-38.9-7.9c-11.9-5-22.6-12.2-31.8-21.4
		c-9.2-9.2-16.4-19.9-21.4-31.8C2.6,126.6,0,113.5,0,100s2.6-26.6,7.9-38.9c5-11.9,12.2-22.6,21.4-31.8S49.2,12.9,61.1,7.9
		C73.4,2.6,86.5,0,100,0s26.6,2.6,38.9,7.9c11.9,5,22.6,12.2,31.8,21.4c9.2,9.2,16.4,19.9,21.4,31.8c5.2,12.3,7.9,25.4,7.9,38.9
		s-2.6,26.6-7.9,38.9c-5,11.9-12.2,22.6-21.4,31.8c-9.2,9.2-19.9,16.4-31.8,21.4C126.6,197.4,113.5,200,100,200z M100,17.1
		c-22.1,0-42.9,8.6-58.6,24.3C25.7,57.1,17.1,77.9,17.1,100s8.6,42.9,24.3,58.6s36.5,24.3,58.6,24.3s42.9-8.6,58.6-24.3
		c15.7-15.7,24.3-36.5,24.3-58.6s-8.6-42.9-24.3-58.6C142.9,25.7,122.1,17.1,100,17.1z"/>
</g>
</svg>
