<?xml version="1.0" encoding="utf-8"?>
<!-- Generator: Adobe Illustrator 19.0.0, SVG Export Plug-In . SVG Version: 6.00 Build 0)  -->
<svg version="1.1" id="Слой_1" xmlns="http://www.w3.org/2000/svg" xmlns:xlink="http://www.w3.org/1999/xlink" x="0px" y="0px"
	 viewBox="0 0 184.8 220" style="enable-background:new 0 0 184.8 220;" xml:space="preserve">
<style type="text/css">
	.st0{fill:#2E3549;}
</style>
<path id="XMLID_377_" class="st0" d="M0,0v127.6c0,12.5,2.4,24.6,7.3,36c4.7,11,11.3,20.9,19.8,29.4c8.5,8.5,18.4,15.1,29.4,19.8
	c11.4,4.8,23.5,7.3,36,7.3c12.5,0,24.6-2.4,36-7.3c11-4.7,20.9-11.3,29.4-19.8c8.5-8.5,15.1-18.4,19.8-29.4
	c4.8-11.4,7.3-23.5,7.3-36V0H0z M169.9,127.6c0,20.7-8.1,40.2-22.7,54.8c-7.3,7.3-15.8,13-25.1,16.8c-9.3,3.8-19.3,5.9-29.7,5.9
	c-20.7,0-40.2-8.1-54.8-22.7c-14.6-14.6-22.7-34.1-22.7-54.8V14.9h155V127.6z"/>
</svg>
